<svg width="48" height="48" viewBox="0 0 48 48" fill="none" xmlns="http://www.w3.org/2000/svg">
<path d="M12.8 40C11.4667 40 10.3333 39.5333 9.4 38.6C8.46667 37.6667 8 36.5333 8 35.2V33.85C8 32.5833 8.45833 31.4083 9.375 30.325C10.2917 29.2417 11.5 28.3083 13 27.525C14.5 26.7417 16.1917 26.125 18.075 25.675C19.9583 25.225 21.8667 25 23.8 25C25.7333 25 27.6667 25.225 29.6 25.675C31.5333 26.125 33.2667 26.75 34.8 27.55C36.3333 28.35 37.5833 29.2917 38.55 30.375C39.5167 31.4583 40 32.6333 40 33.9V35.2C40 36.5333 39.5333 37.6667 38.6 38.6C37.6667 39.5333 36.5333 40 35.2 40H12.8ZM12.8 37H35.2C35.7 37 36.125 36.825 36.475 36.475C36.825 36.125 37 35.7 37 35.2V33.85C37 32.6833 35.7083 31.4167 33.125 30.05C30.5417 28.6833 27.4333 28 23.8 28C20.0667 28 17 28.6917 14.6 30.075C12.2 31.4583 11 32.7333 11 33.9V35.2C11 35.7 11.175 36.125 11.525 36.475C11.875 36.825 12.3 37 12.8 37ZM23.8 22C21.8667 22 20.2167 21.3167 18.85 19.95C17.4833 18.5833 16.8 16.9333 16.8 15C16.8 13.0667 17.4833 11.4167 18.85 10.05C20.2167 8.68333 21.8667 8 23.8 8C25.7667 8 27.425 8.68333 28.775 10.05C30.125 11.4167 30.8 13.0667 30.8 15C30.8 16.9333 30.1167 18.5833 28.75 19.95C27.3833 21.3167 25.7333 22 23.8 22ZM23.8 19C24.9 19 25.8417 18.6083 26.625 17.825C27.4083 17.0417 27.8 16.1 27.8 15C27.8 13.9 27.4083 12.9583 26.625 12.175C25.8417 11.3917 24.9 11 23.8 11C22.7 11 21.7583 11.3917 20.975 12.175C20.1917 12.9583 19.8 13.9 19.8 15C19.8 16.1 20.1917 17.0417 20.975 17.825C21.7583 18.6083 22.7 19 23.8 19Z" fill="black"/>
</svg>
