<svg width="137" height="147" viewBox="0 0 137 147" fill="none" xmlns="http://www.w3.org/2000/svg">
<path d="M22.8333 128.625V67.2219L10.8458 77.0219L5.70834 69.6719L22.8333 55.7375V38.2812H31.3958V48.6937L68.5 18.375L131.292 69.825L126.154 77.0219L114.167 67.2219V128.625H22.8333ZM31.3958 119.438H64.2187V94.9375H72.7812V119.438H105.604V60.1781L68.5 29.8594L31.3958 60.1781V119.438ZM22.8333 30.625C22.8333 25.9292 24.3793 21.9479 27.4714 18.6812C30.5634 15.4146 34.25 13.7812 38.5312 13.7812C40.5292 13.7812 42.2179 13.0156 43.5974 11.4844C44.9769 9.95312 45.6667 8.16667 45.6667 6.125H54.2292C54.2292 10.7188 52.7069 14.6745 49.6625 17.9922C46.6181 21.3099 42.9076 22.9688 38.5312 22.9688C36.6285 22.9688 34.9635 23.7089 33.5365 25.1891C32.1094 26.6693 31.3958 28.4813 31.3958 30.625H22.8333ZM31.3958 119.438H64.2187H72.7812H105.604H68.5H31.3958Z" fill="black"/>
</svg>
