<svg width="48" height="48" viewBox="0 0 48 48" fill="none" xmlns="http://www.w3.org/2000/svg">
<path d="M38.5 30.25V14.15L28 6.8L17.5 14.15V20.6H14.5V12.65L28 3L41.5 12.65V30.25H38.5ZM29 17H31V15H29V17ZM25 17H27V15H25V17ZM29 21H31V19H29V21ZM25 21H27V19H25V21ZM28.3 44.9L12.75 40.45V43.3H2V23.6H17.45L30.2 28.4C31.1 28.7333 31.8583 29.275 32.475 30.025C33.0917 30.775 33.4 31.85 33.4 33.25H39.1C40.5 33.25 41.6667 33.75 42.6 34.75C43.5333 35.75 44 37.1 44 38.8V40.1L28.3 44.9ZM5 40.3H9.7V26.6H5V40.3ZM28.1 41.8L40.9 37.9C40.7 37.2667 40.45 36.8333 40.15 36.6C39.85 36.3667 39.5 36.25 39.1 36.25H28.75C27.75 36.25 26.825 36.1833 25.975 36.05C25.125 35.9167 24.3167 35.7333 23.55 35.5L19.5 34.25L20.6 31.35L24.25 32.55C25.0833 32.8167 25.875 33 26.625 33.1C27.375 33.2 28.5667 33.25 30.2 33.25C30.2 32.85 30.125 32.4583 29.975 32.075C29.825 31.6917 29.5667 31.4167 29.2 31.25L16.95 26.6H12.75V37.3L28.1 41.8Z" fill="black"/>
</svg>
