<svg width="137" height="147" viewBox="0 0 137 147" fill="none" xmlns="http://www.w3.org/2000/svg">
<path d="M11.4167 122.5V113.312H45.6667C43.7639 104.023 39.6016 95.8817 33.1797 88.889C26.7578 81.8963 19.5035 77.2771 11.4167 75.0312C13.3194 74.5208 15.1984 74.138 17.0537 73.8828C18.9089 73.6276 20.8354 73.5 22.8333 73.5C35.582 73.5 46.3802 78.2469 55.2281 87.7406C64.076 97.2344 68.5 108.821 68.5 122.5H11.4167ZM77.0625 122.5C77.0625 118.212 76.682 114.461 75.9208 111.245C75.1597 108.03 74.2083 104.84 73.0667 101.675C76.8722 92.6917 82.5806 85.75 90.1917 80.85C97.8028 75.95 105.794 73.5 114.167 73.5C116.165 73.5 118.091 73.6276 119.946 73.8828C121.802 74.138 123.681 74.5208 125.583 75.0312C117.497 77.2771 110.171 81.9474 103.606 89.0422C97.0417 96.137 92.9507 104.227 91.3333 113.312H125.583V122.5H77.0625ZM68.7854 92.9469C67.9292 85.1885 68.5476 77.9406 70.6406 71.2031C72.7337 64.4656 75.8019 58.5958 79.8453 53.5937C83.8887 48.5917 88.7646 44.6104 94.4729 41.65C100.181 38.6896 106.223 37.1073 112.597 36.9031C107.269 40.476 102.251 45.3505 97.5412 51.5266C92.8318 57.7026 89.8587 64.3125 88.6219 71.3562C84.4358 73.5 80.6302 76.4859 77.2052 80.314C73.7802 84.1422 70.9736 88.3531 68.7854 92.9469ZM60.0802 81.3094C58.558 79.7781 56.8931 78.2469 55.0854 76.7156C53.2778 75.1844 51.7556 74.0104 50.5188 73.1937C50.8042 71.9687 51.0182 70.6161 51.1609 69.1359C51.3036 67.6557 51.375 66.4562 51.375 65.5375C51.375 57.7792 50.2333 50.4292 47.95 43.4875C45.6667 36.5458 42.4319 30.2167 38.2458 24.5C44.9056 27.3583 50.8042 31.8755 55.9417 38.0516C61.0792 44.2276 64.6945 51.2969 66.7875 59.2594C65.075 62.526 63.6241 66.0734 62.4349 69.9016C61.2457 73.7297 60.4608 77.5323 60.0802 81.3094Z" fill="black"/>
</svg>
