<svg width="145" height="145" viewBox="0 0 145 145" fill="none" xmlns="http://www.w3.org/2000/svg">
<path d="M33.2292 84.5833C33.2292 90.9271 34.6641 96.8932 37.5339 102.482C40.4037 108.07 44.4063 112.727 49.5417 116.453C49.1389 115.245 48.8368 114.011 48.6354 112.753C48.434 111.494 48.3334 110.26 48.3334 109.052C48.3334 105.83 48.9375 102.809 50.1459 99.9896C51.3542 97.1701 53.1163 94.6024 55.4323 92.2865L72.5 75.5208L89.5677 92.2865C91.8837 94.6024 93.6458 97.1701 94.8542 99.9896C96.0625 102.809 96.6667 105.83 96.6667 109.052C96.6667 110.26 96.566 111.494 96.3646 112.753C96.1632 114.011 95.8611 115.245 95.4584 116.453C100.594 112.727 104.596 108.07 107.466 102.482C110.336 96.8932 111.771 90.9271 111.771 84.5833C111.771 79.1458 110.613 73.8342 108.297 68.6484C105.981 63.4627 102.658 58.7049 98.3281 54.375C96.2136 55.8854 93.9983 57.0686 91.6823 57.9245C89.3663 58.7804 87.0504 59.2083 84.7344 59.2083C78.592 59.2083 73.507 57.1189 69.4792 52.9401C65.4514 48.7613 63.4375 43.5 63.4375 37.1563V34.1354C58.8056 37.4583 54.6268 41.1337 50.9011 45.1615C47.1754 49.1892 44.0035 53.3932 41.3854 57.7734C38.7674 62.1536 36.7535 66.6346 35.3438 71.2162C33.934 75.7977 33.2292 80.2535 33.2292 84.5833ZM72.5 88.2083L61.7761 98.7813C60.3663 100.191 59.2839 101.752 58.5287 103.464C57.7735 105.175 57.3959 107.038 57.3959 109.052C57.3959 113.181 58.8559 116.68 61.7761 119.549C64.6962 122.419 68.2708 123.854 72.5 123.854C76.7292 123.854 80.3038 122.419 83.224 119.549C86.1441 116.68 87.6042 113.181 87.6042 109.052C87.6042 107.038 87.2266 105.175 86.4714 103.464C85.7162 101.752 84.6337 100.191 83.224 98.7813L72.5 88.2083ZM72.5 18.125V38.0625C72.5 41.4861 73.6832 44.3559 76.0495 46.6719C78.4158 48.9878 81.3108 50.1458 84.7344 50.1458C86.5469 50.1458 88.2335 49.7682 89.7943 49.013C91.355 48.2578 92.7396 47.125 93.9479 45.6146L96.6667 42.2917C104.118 46.5208 110.009 52.4115 114.339 59.9635C118.668 67.5156 120.833 75.7222 120.833 84.5833C120.833 98.0764 116.151 109.505 106.786 118.87C97.4219 128.234 85.9931 132.917 72.5 132.917C59.007 132.917 47.5781 128.234 38.2136 118.87C28.849 109.505 24.1667 98.0764 24.1667 84.5833C24.1667 71.6944 28.4965 59.2839 37.1563 47.3516C45.816 35.4193 57.5972 25.6771 72.5 18.125Z" fill="black"/>
</svg>
