<svg width="157" height="112" viewBox="0 0 157 112" fill="none" xmlns="http://www.w3.org/2000/svg">
<rect x="14.625" y="28.125" width="59.625" height="52.875" rx="15" fill="#A61E11"/>
<rect width="58.8789" height="5.69689" rx="2.84845" transform="matrix(0.792458 0.609927 -0.625838 0.779953 45.4749 3.23151)" fill="#A61E11"/>
<rect width="58.8352" height="5.70116" rx="2.85058" transform="matrix(-0.769749 0.638347 -0.654023 -0.756475 49.017 8.54425)" fill="#A61E11"/>
<rect x="76.6754" y="33.15" width="5.71493" height="46.1764" rx="2.85747" fill="#A61E11"/>
<rect width="58.6891" height="5.52241" rx="2.76121" transform="matrix(0.802515 0.596632 -0.612608 0.790387 52.4363 0)" fill="#A61E11"/>
<rect x="85.724" y="39.2136" width="5.23869" height="40.1128" rx="2.61934" fill="#A61E11"/>
<rect x="93.344" y="34.0829" width="6.19118" height="45.2436" rx="3.09559" fill="#A61E11"/>
<circle cx="35.4375" cy="45.5625" r="6.1875" fill="white"/>
<circle cx="35.4375" cy="63.5625" r="6.1875" fill="white"/>
<circle cx="52.3125" cy="45.5625" r="6.1875" fill="white"/>
<circle cx="52.3125" cy="63.5625" r="6.1875" fill="white"/>
<path d="M3.58878 103H0.443892L10.7702 83.3636H14.1932L17.9996 103H14.8548L11.9879 86.9304H11.8345L3.58878 103ZM5.39134 95.3104H15.593L15.1712 97.8033H4.96946L5.39134 95.3104ZM33.8128 88.2727L26.0177 103H22.9495L20.0539 88.2727H23.0166L24.8575 99.6058H25.0109L30.6199 88.2727H33.8128ZM39.8604 103.297C38.4158 103.297 37.2205 102.987 36.2745 102.367C35.3349 101.741 34.6765 100.862 34.2994 99.7305C33.9222 98.5927 33.8615 97.2599 34.1172 95.7322C34.3665 94.2237 34.8683 92.8942 35.6225 91.7436C36.3768 90.593 37.3164 89.695 38.4414 89.0494C39.5728 88.4038 40.8224 88.081 42.1903 88.081C43.0213 88.081 43.8043 88.2184 44.5394 88.4933C45.2809 88.7681 45.9105 89.1996 46.4283 89.7876C46.946 90.3757 47.304 91.1396 47.5021 92.0792C47.7067 93.0124 47.7003 94.147 47.483 95.483L47.32 96.4993H35.6033L35.9389 94.3516H44.8366C44.9709 93.5973 44.9357 92.9293 44.7312 92.3477C44.5266 91.7596 44.1751 91.2962 43.6765 90.9574C43.1843 90.6186 42.5643 90.4492 41.8164 90.4492C41.0494 90.4492 40.3335 90.6506 39.6687 91.0533C39.0039 91.456 38.4478 91.9705 38.0004 92.5969C37.5593 93.217 37.2813 93.8562 37.1662 94.5146L36.8306 96.4801C36.6644 97.554 36.6932 98.4169 36.9169 99.0689C37.147 99.7209 37.5497 100.194 38.125 100.488C38.7003 100.782 39.4194 100.929 40.2823 100.929C40.8384 100.929 41.353 100.852 41.826 100.699C42.3054 100.539 42.7305 100.306 43.1012 99.9989C43.4719 99.6857 43.782 99.2958 44.0312 98.8292L46.6584 99.3182C46.3068 100.117 45.8018 100.817 45.1435 101.418C44.4851 102.012 43.7085 102.476 42.8136 102.808C41.9251 103.134 40.9407 103.297 39.8604 103.297ZM62.3469 91.8683L59.6718 92.3285C59.6143 91.9897 59.496 91.6701 59.317 91.3697C59.1444 91.0692 58.8792 90.8263 58.5212 90.641C58.1633 90.4492 57.6871 90.3533 57.0926 90.3533C56.268 90.3533 55.5457 90.5419 54.9257 90.919C54.3121 91.2962 53.9605 91.7756 53.871 92.3572C53.7879 92.8303 53.8998 93.2138 54.2066 93.5078C54.5134 93.7955 55.0535 94.0352 55.827 94.2269L58.0898 94.7638C59.3937 95.0771 60.327 95.5661 60.8895 96.2308C61.4584 96.8892 61.6565 97.7457 61.4839 98.8004C61.3369 99.6761 60.9534 100.453 60.3334 101.13C59.7197 101.808 58.9335 102.338 57.9747 102.722C57.0159 103.105 55.9484 103.297 54.7723 103.297C53.0976 103.297 51.7936 102.942 50.8604 102.233C49.9271 101.523 49.4477 100.52 49.4221 99.2223L52.2602 98.8004C52.3113 99.5227 52.5702 100.069 53.0368 100.44C53.5099 100.804 54.165 100.987 55.0024 100.987C55.9612 100.993 56.7634 100.792 57.409 100.382C58.0546 99.9734 58.4221 99.478 58.5116 98.8963C58.5883 98.4425 58.4861 98.0653 58.2048 97.7649C57.93 97.4645 57.4442 97.2344 56.7474 97.0746L54.3696 96.5281C53.04 96.2148 52.1004 95.7099 51.5507 95.0131C51.001 94.3164 50.8156 93.4407 50.9946 92.386C51.1352 91.5231 51.4996 90.772 52.0876 90.1328C52.6821 89.4872 53.4332 88.9854 54.3408 88.6275C55.2485 88.2631 56.252 88.081 57.3515 88.081C58.9559 88.081 60.1608 88.4261 60.9662 89.1165C61.7716 89.8004 62.2318 90.7177 62.3469 91.8683ZM73.2557 88.2727L72.8817 90.5739H64.8374L65.2113 88.2727H73.2557ZM67.9439 84.7443H70.8107L68.4904 98.6758C68.4009 99.2319 68.4169 99.6506 68.5384 99.9318C68.6598 100.207 68.8452 100.395 69.0945 100.498C69.3501 100.593 69.6346 100.641 69.9478 100.641C70.1779 100.641 70.3793 100.625 70.5518 100.593C70.7244 100.561 70.8619 100.536 70.9641 100.517L71.1175 102.885C70.9258 102.949 70.6669 103.013 70.3409 103.077C70.0213 103.147 69.6314 103.185 69.1712 103.192C68.4169 103.205 67.7362 103.07 67.1289 102.789C66.5217 102.501 66.0678 102.067 65.7674 101.485C65.467 100.897 65.3935 100.159 65.5469 99.2702L67.9439 84.7443ZM76.1009 103.182C75.564 103.182 75.1166 102.997 74.7586 102.626C74.407 102.255 74.2345 101.801 74.2409 101.265C74.2472 100.734 74.4454 100.29 74.8353 99.9318C75.2316 99.5675 75.6919 99.3853 76.216 99.3853C76.7401 99.3853 77.1876 99.5707 77.5583 99.9414C77.9291 100.312 78.1017 100.753 78.0761 101.265C78.0569 101.623 77.9546 101.949 77.7693 102.243C77.5903 102.53 77.3538 102.76 77.0597 102.933C76.7657 103.099 76.4461 103.182 76.1009 103.182ZM86.8731 108.83C85.697 108.83 84.7126 108.676 83.92 108.369C83.1338 108.063 82.5138 107.657 82.0599 107.152C81.6125 106.647 81.3025 106.094 81.1299 105.493L83.7762 104.477C83.904 104.758 84.083 105.055 84.3131 105.368C84.5432 105.688 84.8852 105.96 85.339 106.183C85.7993 106.407 86.4289 106.519 87.2279 106.519C88.3145 106.519 89.2638 106.254 90.0756 105.723C90.8873 105.199 91.3891 104.362 91.5809 103.211L92.0315 100.315H91.8493C91.632 100.629 91.3316 100.977 90.9481 101.36C90.5645 101.744 90.0692 102.076 89.4619 102.358C88.8547 102.639 88.1004 102.779 87.1991 102.779C86.0358 102.779 85.0322 102.508 84.1885 101.964C83.3511 101.415 82.7503 100.606 82.3859 99.5387C82.0216 98.4648 81.9704 97.1449 82.2325 95.5788C82.4882 94.0128 82.974 92.6705 83.6899 91.5518C84.4122 90.4332 85.2879 89.5767 86.317 88.9822C87.3525 88.3814 88.4616 88.081 89.6441 88.081C90.5581 88.081 91.2709 88.2344 91.7822 88.5412C92.3 88.8416 92.6835 89.1932 92.9328 89.5959C93.1821 89.9986 93.3643 90.3533 93.4793 90.6602H93.6903L94.0834 88.2727H96.8927L94.3998 103.326C94.1952 104.592 93.7318 105.63 93.0095 106.442C92.2936 107.254 91.4019 107.855 90.3344 108.245C89.2733 108.635 88.1196 108.83 86.8731 108.83ZM88.1771 100.402C88.9953 100.402 89.724 100.21 90.3632 99.8263C91.0088 99.4364 91.5457 98.8803 91.974 98.158C92.4023 97.4293 92.6995 96.5568 92.8657 95.5405C93.0319 94.5497 93.0223 93.6772 92.8369 92.9229C92.6579 92.1687 92.3096 91.5806 91.7918 91.1587C91.2805 90.7305 90.6125 90.5163 89.7879 90.5163C88.9186 90.5163 88.1643 90.7401 87.5251 91.1875C86.8859 91.6286 86.365 92.2294 85.9623 92.9901C85.566 93.7507 85.2879 94.6009 85.1281 95.5405C84.9747 96.5057 84.9779 97.3526 85.1377 98.0813C85.3039 98.81 85.6363 99.3789 86.1349 99.788C86.6334 100.197 87.3142 100.402 88.1771 100.402ZM104.592 103.297C103.147 103.297 101.952 102.987 101.006 102.367C100.066 101.741 99.4079 100.862 99.0308 99.7305C98.6537 98.5927 98.593 97.2599 98.8486 95.7322C99.0979 94.2237 99.5997 92.8942 100.354 91.7436C101.108 90.593 102.048 89.695 103.173 89.0494C104.304 88.4038 105.554 88.081 106.922 88.081C107.753 88.081 108.536 88.2184 109.271 88.4933C110.012 88.7681 110.642 89.1996 111.16 89.7876C111.677 90.3757 112.035 91.1396 112.234 92.0792C112.438 93.0124 112.432 94.147 112.214 95.483L112.051 96.4993H100.335L100.67 94.3516H109.568C109.702 93.5973 109.667 92.9293 109.463 92.3477C109.258 91.7596 108.907 91.2962 108.408 90.9574C107.916 90.6186 107.296 90.4492 106.548 90.4492C105.781 90.4492 105.065 90.6506 104.4 91.0533C103.735 91.456 103.179 91.9705 102.732 92.5969C102.291 93.217 102.013 93.8562 101.898 94.5146L101.562 96.4801C101.396 97.554 101.425 98.4169 101.648 99.0689C101.878 99.7209 102.281 100.194 102.856 100.488C103.432 100.782 104.151 100.929 105.014 100.929C105.57 100.929 106.084 100.852 106.557 100.699C107.037 100.539 107.462 100.306 107.833 99.9989C108.203 99.6857 108.513 99.2958 108.763 98.8292L111.39 99.3182C111.038 100.117 110.533 100.817 109.875 101.418C109.217 102.012 108.44 102.476 107.545 102.808C106.657 103.134 105.672 103.297 104.592 103.297Z" fill="#A61E11"/>
</svg>
