<svg width="123" height="132" viewBox="0 0 123 132" fill="none" xmlns="http://www.w3.org/2000/svg">
<path d="M0 132V30.25H28.1875V0H94.8125V60.5H123V132H70.5542V101.75H52.4458V132H0ZM10.25 121H28.1875V101.75H10.25V121ZM10.25 90.75H28.1875V71.5H10.25V90.75ZM10.25 60.5H28.1875V41.25H10.25V60.5ZM38.4375 90.75H56.375V71.5H38.4375V90.75ZM38.4375 60.5H56.375V41.25H38.4375V60.5ZM38.4375 30.25H56.375V11H38.4375V30.25ZM66.625 90.75H84.5625V71.5H66.625V90.75ZM66.625 60.5H84.5625V41.25H66.625V60.5ZM66.625 30.25H84.5625V11H66.625V30.25ZM94.8125 121H112.75V101.75H94.8125V121ZM94.8125 90.75H112.75V71.5H94.8125V90.75Z" fill="black"/>
</svg>
